<svg width="20" height="20" viewBox="0 0 20 20" fill="none" xmlns="http://www.w3.org/2000/svg">
<g clip-path="url(#clip0_212:80)">
<path d="M5.99991 14.3333V15C5.99991 15.184 6.14924 15.3333 6.33323 15.3333C6.51721 15.3333 6.66655 15.184 6.66655 15V14.3333C6.66655 14.1493 6.51721 14 6.33323 14C6.14924 14 5.99991 14.1493 5.99991 14.3333Z" fill="white"/>
<path d="M19.6667 19.3333H19.3334V8.83332C19.3334 8.64934 19.184 8.5 19 8.5C18.8161 8.5 18.6667 8.64934 18.6667 8.83332V19.3333H1.33332V8.83332C1.33332 8.64934 1.18398 8.5 1 8.5C0.816016 8.5 0.66668 8.64934 0.66668 8.83332V19.3333H0.33332C0.149336 19.3333 0 19.4827 0 19.6666C0 19.8506 0.149336 20 0.33332 20H19.6666C19.8506 20 20 19.8507 20 19.6667C20 19.4827 19.8507 19.3333 19.6667 19.3333Z" fill="white"/>
<path d="M7.66661 18.6667C7.85059 18.6667 7.99993 18.5174 7.99993 18.3334V10.3334C7.99993 10.1494 7.85059 10.0001 7.66661 10.0001H2.99993C2.81595 10.0001 2.66661 10.1494 2.66661 10.3334V18.3334C2.66661 18.5174 2.81595 18.6667 2.99993 18.6667C3.18392 18.6667 3.33325 18.5174 3.33325 18.3334V10.6667H7.33325V18.3334C7.33325 18.5174 7.48259 18.6667 7.66661 18.6667Z" fill="white"/>
<path d="M13.9024 12.0977C13.7721 11.9674 13.5614 11.9674 13.4311 12.0977C13.3007 12.228 13.3007 12.4387 13.4311 12.569L14.7644 13.9023C14.8294 13.9673 14.9148 14 15.0001 14C15.0854 14 15.1707 13.9673 15.2357 13.9023C15.3661 13.772 15.3661 13.5613 15.2357 13.431L13.9024 12.0977Z" fill="white"/>
<path d="M18.3333 0H1.66668C0.747656 0 0 0.747656 0 1.66668V7.63301C0 7.73336 0.045 7.82801 0.122344 7.89133C0.199687 7.95434 0.301992 7.97965 0.399688 7.95965C0.932031 7.85164 1.3807 7.53398 1.66637 7.10363C2.02469 7.64363 2.63836 7.99996 3.33336 7.99996C4.02805 7.99996 4.64137 7.64395 5.00004 7.1043C5.35871 7.64395 5.97203 7.99996 6.66672 7.99996C7.36141 7.99996 7.97473 7.64395 8.3334 7.1043C8.69199 7.64398 9.30535 8 10 8C10.6947 8 11.308 7.64398 11.6667 7.10434C12.0254 7.64398 12.6387 8 13.3334 8C14.028 8 14.6414 7.64398 15 7.10434C15.3587 7.64398 15.972 8 16.6667 8C17.3617 8 17.9754 7.64367 18.3337 7.10367C18.6194 7.53402 19.068 7.85168 19.6004 7.95969C19.6987 7.98004 19.8001 7.95469 19.8777 7.89137C19.9551 7.82805 20.0001 7.73336 20.0001 7.63305V1.66668C20 0.747656 19.2523 0 18.3333 0ZM19.3333 7.15465C18.931 6.92133 18.6666 6.485 18.6666 6V1.66668C18.6666 1.4827 18.5173 1.33336 18.3333 1.33336C18.1493 1.33336 18 1.4827 18 1.66668V6C18 6.73535 17.402 7.33332 16.6667 7.33332C15.9314 7.33332 15.3334 6.73531 15.3334 6V1.66668C15.3334 1.4827 15.184 1.33336 15 1.33336C14.8161 1.33336 14.6667 1.4827 14.6667 1.66668V6C14.6667 6.73535 14.0687 7.33332 13.3334 7.33332C12.598 7.33332 12.0001 6.73531 12.0001 6V1.66668C12.0001 1.4827 11.8507 1.33336 11.6668 1.33336C11.4828 1.33336 11.3334 1.4827 11.3334 1.66668V6C11.3334 6.73535 10.7354 7.33332 10.0001 7.33332C9.26476 7.33332 8.6668 6.73531 8.6668 6V1.66668C8.6668 1.4827 8.51746 1.33336 8.33348 1.33336C8.14949 1.33336 8.00016 1.4827 8.00016 1.66668V6C8.00016 6.73535 7.40215 7.33332 6.66684 7.33332C5.93152 7.33332 5.33352 6.73531 5.33352 6V1.66668C5.33352 1.4827 5.18418 1.33336 5.0002 1.33336C4.81621 1.33336 4.66687 1.4827 4.66687 1.66668V6C4.66687 6.73535 4.06887 7.33332 3.33355 7.33332C2.5982 7.33332 2.00023 6.73531 2.00023 6V1.66668C2.00023 1.4827 1.8509 1.33336 1.66691 1.33336C1.48293 1.33336 1.33359 1.4827 1.33359 1.66668V6C1.33359 6.485 1.06926 6.92133 0.666914 7.15465V1.66668C0.666914 1.11535 1.11559 0.66668 1.66691 0.66668H18.3336C18.8849 0.66668 19.3336 1.11535 19.3336 1.66668V7.15465H19.3333Z" fill="white"/>
<path d="M16.9999 17.3333C17.1839 17.3333 17.3333 17.184 17.3333 17V10.3333C17.3333 10.1493 17.1839 10 16.9999 10H8.99993C8.81595 10 8.66661 10.1493 8.66661 10.3333V17C8.66661 17.184 8.81595 17.3333 8.99993 17.3333H16.9999ZM9.33325 10.6667H16.6666V16.6667H9.33325V10.6667Z" fill="white"/>
<path d="M15.2358 11.4311C15.1055 11.3007 14.8948 11.3007 14.7645 11.4311C14.6342 11.5614 14.6342 11.7721 14.7645 11.9024L15.4311 12.5691C15.4961 12.6341 15.5815 12.6667 15.6668 12.6667C15.7522 12.6667 15.8375 12.6341 15.9025 12.5691C16.0328 12.4387 16.0328 12.2281 15.9025 12.0978L15.2358 11.4311Z" fill="white"/>
</g>
<defs>
<clipPath id="clip0_212:80">
<rect width="20" height="20" fill="white"/>
</clipPath>
</defs>
</svg>
