<svg width="20" height="20" viewBox="0 0 20 20" fill="none" xmlns="http://www.w3.org/2000/svg">
<path d="M14.1667 14.1667C13.2462 14.1667 12.5 14.9128 12.5 15.8333C12.5 16.7538 13.2462 17.5 14.1667 17.5C15.0872 17.5 15.8334 16.7538 15.8334 15.8333C15.8334 14.9128 15.0872 14.1667 14.1667 14.1667ZM14.1667 14.1667H6.13944C5.72474 14.1667 5.37314 13.8617 5.31449 13.4512L5.05956 11.6667L14.1667 14.1667ZM1.6667 2.5H3.75004L3.98813 4.16667L1.6667 2.5ZM3.98813 4.16667H4.1667H17.5L15 11.6667H5.4167H5.05956L3.98813 4.16667ZM3.98813 4.16667L5.05956 11.6667L3.98813 4.16667ZM9.1667 15.8333C9.1667 16.7538 8.42054 17.5 7.50004 17.5C6.57956 17.5 5.83337 16.7538 5.83337 15.8333C5.83337 14.9128 6.57956 14.1667 7.50004 14.1667C8.42054 14.1667 9.1667 14.9128 9.1667 15.8333Z" stroke="white" stroke-width="1.5" stroke-linecap="round" stroke-linejoin="round"/>
</svg>
