<svg width="20" height="20" viewBox="0 0 20 20" fill="none" xmlns="http://www.w3.org/2000/svg">
<g clip-path="url(#clip0_212:69)">
<path d="M18.9169 19.0224H18.2166V18.1371H18.9168C19.1867 18.1371 19.4055 17.9183 19.4055 17.6484C19.4055 14.9215 17.3132 12.674 14.6499 12.4266V11.5816C14.6499 11.3116 14.4311 11.0928 14.1612 11.0928C13.8912 11.0928 13.6724 11.3116 13.6724 11.5816V12.4266C11.009 12.674 8.91681 14.9215 8.91681 17.6484C8.91681 17.9183 9.13561 18.1371 9.40554 18.1371H10.1057V19.0224H9.40554C9.13561 19.0224 8.91681 19.2412 8.91681 19.5111C8.91681 19.781 9.13561 19.9998 9.40554 19.9998H10.5849C10.5913 20 10.5977 20 10.6041 19.9998H17.7183C17.7214 19.9999 17.7247 19.9999 17.7278 19.9999C17.731 19.9999 17.7342 19.9999 17.7374 19.9998H18.9169C19.1868 19.9998 19.4056 19.781 19.4056 19.5111C19.4056 19.2412 19.1868 19.0224 18.9169 19.0224ZM17.2391 19.0224H11.0831V18.1371H17.2391V19.0224ZM9.92203 17.1597C10.1653 15.0363 11.9736 13.3815 14.1611 13.3815C16.3486 13.3815 18.1569 15.0363 18.4002 17.1597H9.92203ZM6.43321 4.75566C4.99716 4.75566 3.87224 5.57718 3.87224 6.6259C3.87224 7.67458 4.99716 8.49604 6.43321 8.49604C7.86925 8.49604 8.99412 7.67458 8.99412 6.6259C8.99412 5.57713 7.86925 4.75566 6.43321 4.75566ZM6.43321 7.51852C5.50002 7.51852 4.84971 7.04812 4.84971 6.62585C4.84971 6.20359 5.50002 5.73308 6.43321 5.73308C7.36635 5.73308 8.01666 6.20359 8.01666 6.62585C8.01666 7.04807 7.36635 7.51852 6.43321 7.51852ZM7.58432 19.0225H1.57187V3.35525H11.2945V11.4936C11.2945 11.7636 11.5133 11.9824 11.7833 11.9824C12.0532 11.9824 12.272 11.7636 12.272 11.4936V2.86651C12.272 2.59659 12.0532 2.37778 11.7833 2.37778H11.5535V0.488728C11.5535 0.349048 11.4938 0.216015 11.3893 0.123253C11.2849 0.0305407 11.1457 -0.0130544 11.007 0.00341596L1.02532 1.19236C0.77949 1.22163 0.594406 1.43008 0.594406 1.67767V19.5112C0.594406 19.7811 0.813212 19.9999 1.08314 19.9999H7.58432C7.85425 19.9999 8.07306 19.7811 8.07306 19.5112C8.07306 19.2413 7.85425 19.0225 7.58432 19.0225ZM1.57187 2.11162L10.5761 1.03914V2.37783H1.57187V2.11162ZM5.61013 17.6222C5.3402 17.6222 5.1214 17.4034 5.1214 17.1334C5.1214 16.8635 5.3402 16.6447 5.61013 16.6447H7.25624C7.52616 16.6447 7.74497 16.8635 7.74497 17.1334C7.74497 17.4034 7.52616 17.6222 7.25624 17.6222H5.61013Z" fill="white"/>
</g>
<defs>
<clipPath id="clip0_212:69">
<rect width="20" height="20" fill="white"/>
</clipPath>
</defs>
</svg>
