<svg width="20" height="20" viewBox="0 0 20 20" fill="none" xmlns="http://www.w3.org/2000/svg">
<path d="M19.3543 2.06042H0.645656C0.289082 2.06042 0 2.34942 0 2.70608V17.2937C0 17.6503 0.289082 17.9393 0.645656 17.9393H19.3543C19.7109 17.9393 20 17.6503 20 17.2937V2.70608C20 2.34951 19.7109 2.06042 19.3543 2.06042ZM18.7087 3.35182V15.6702L13.5439 10.1779C13.4219 10.0481 13.2517 9.97453 13.0737 9.97453C13.0736 9.97453 13.0736 9.97453 13.0736 9.97453C12.8955 9.97453 12.7254 10.0481 12.6034 10.1777L10.3978 12.5216L7.44079 8.62261C7.31872 8.46163 7.12838 8.3671 6.92633 8.3671C6.92616 8.3671 6.92599 8.3671 6.92582 8.3671C6.7236 8.36728 6.53317 8.46214 6.41127 8.62347L1.29131 15.3976V3.35182H18.7087ZM17.8558 16.6481H1.96486L6.9272 10.0823L9.83024 13.9102C9.94508 14.0616 10.1207 14.1547 10.3104 14.1647C10.4999 14.1742 10.6847 14.1009 10.8149 13.9624L13.0733 11.5624L17.8558 16.6481Z" fill="white"/>
<path d="M13.364 8.7535C14.5345 8.7535 15.4867 7.80128 15.4867 6.63092C15.4867 5.46039 14.5345 4.50818 13.364 4.50818C12.1935 4.50818 11.2414 5.46048 11.2414 6.63092C11.2414 7.80128 12.1936 8.7535 13.364 8.7535ZM13.364 5.7994C13.8225 5.7994 14.1954 6.17242 14.1954 6.63084C14.1954 7.08917 13.8225 7.4621 13.364 7.4621C12.9056 7.4621 12.5327 7.08917 12.5327 6.63084C12.5327 6.17242 12.9057 5.7994 13.364 5.7994Z" fill="white"/>
</svg>
