<svg width="20" height="20" viewBox="0 0 20 20" fill="none" xmlns="http://www.w3.org/2000/svg">
<path d="M0.835938 16.8946H3.80859C4.03516 16.8946 4.21484 16.711 4.21484 16.4883V4.53131C4.21484 4.30475 4.03125 4.12506 3.80859 4.12506H0.835938C0.609375 4.12506 0.429688 4.30865 0.429688 4.53131V16.4883C0.429688 16.7149 0.613281 16.8946 0.835938 16.8946ZM1.24609 4.93756H3.40234V16.0782H1.24609V4.93756Z" fill="white"/>
<path d="M5.95697 16.8945H8.92963C9.1562 16.8945 9.33588 16.7109 9.33588 16.4883V8.17578C9.33588 7.94922 9.15229 7.76953 8.92963 7.76953H5.95697C5.73041 7.76953 5.55072 7.95313 5.55072 8.17578V16.4883C5.54681 16.7148 5.73041 16.8945 5.95697 16.8945ZM6.36322 8.58594H8.51948V16.082H6.36322V8.58594Z" fill="white"/>
<path d="M11.0741 16.8945H14.0468C14.2733 16.8945 14.453 16.7109 14.453 16.4883V1.80859C14.453 1.58203 14.2694 1.40234 14.0468 1.40234H11.0741C10.8476 1.40234 10.6679 1.58594 10.6679 1.80859V16.4883C10.6679 16.7148 10.8476 16.8945 11.0741 16.8945ZM11.4804 2.21484H13.6366V16.082H11.4804V2.21484Z" fill="white"/>
<path d="M19.164 5.96478H16.1913C15.9648 5.96478 15.7851 6.14838 15.7851 6.37103V16.4882C15.7851 16.7148 15.9687 16.8945 16.1913 16.8945H19.164C19.3905 16.8945 19.5702 16.7109 19.5702 16.4882V6.37103C19.5702 6.14838 19.3866 5.96478 19.164 5.96478ZM18.7538 16.082H16.5976V6.78119H18.7538V16.082Z" fill="white"/>
<path d="M19.1641 17.7852H0.835938C0.609375 17.7852 0.429688 17.9688 0.429688 18.1914C0.429688 18.4141 0.613281 18.5977 0.835938 18.5977H19.1602C19.3867 18.5977 19.5664 18.4141 19.5664 18.1914C19.5664 17.9688 19.3867 17.7852 19.1641 17.7852Z" fill="white"/>
</svg>
