<svg width="20" height="20" viewBox="0 0 20 20" fill="none" xmlns="http://www.w3.org/2000/svg">
<g clip-path="url(#clip0_212:113)">
<path d="M19.1177 4.41175H14.7059V1.17647C14.7059 0.689167 14.3108 0.294128 13.8236 0.294128H0.882344C0.395078 0.294089 0 0.689167 0 1.17647V11.549C0 12.0363 0.395078 12.4314 0.882344 12.4314H2.11766V14.7059C2.11766 15.0349 2.3007 15.3366 2.59254 15.4885C2.7207 15.5553 2.86059 15.5882 2.99996 15.5882C3.17777 15.5882 3.35488 15.5345 3.50602 15.4288L5.29414 14.177V15.6667C5.29414 16.154 5.68922 16.549 6.17648 16.549H12.2121L16.494 19.5464C16.6452 19.6522 16.8222 19.7059 17.0001 19.7059C17.1394 19.7059 17.2793 19.673 17.4075 19.6062C17.6993 19.4542 17.8824 19.1526 17.8824 18.8235V16.549H19.1177C19.605 16.549 20 16.1539 20 15.6667V5.29409C20 4.80682 19.6049 4.41175 19.1177 4.41175ZM3.88234 13.0112V11.549C3.88234 11.0617 3.48727 10.6666 3 10.6666H1.76469V2.05882H12.9412V5.29292C12.9412 5.29335 12.9411 5.2937 12.9411 5.29409C12.9411 5.29448 12.9412 5.29487 12.9412 5.29526V10.6666H7.50977C7.32875 10.6666 7.15207 10.7223 7.00375 10.8261L3.88234 13.0112ZM18.2353 14.7843H17C16.5127 14.7843 16.1177 15.1794 16.1177 15.6666V17.1288L12.9963 14.9437C12.848 14.8399 12.6713 14.7843 12.4902 14.7843H7.05883V12.9417L7.78793 12.4314H13.8235C14.3108 12.4314 14.7059 12.0363 14.7059 11.549V6.17647H18.2353V14.7843H18.2353Z" fill="white"/>
<path d="M10.2941 3.82355H4.41173C3.92443 3.82355 3.52939 4.21859 3.52939 4.70589C3.52939 5.1932 3.92443 5.58824 4.41173 5.58824H10.2941C10.7814 5.58824 11.1764 5.19316 11.1764 4.70589C11.1764 4.21863 10.7814 3.82355 10.2941 3.82355Z" fill="white"/>
<path d="M10.2941 7.35297H4.41173C3.92443 7.35297 3.52939 7.74804 3.52939 8.23531C3.52939 8.72258 3.92443 9.11765 4.41173 9.11765H10.2941C10.7814 9.11765 11.1764 8.72261 11.1764 8.23531C11.1764 7.74801 10.7814 7.35297 10.2941 7.35297Z" fill="white"/>
</g>
<defs>
<clipPath id="clip0_212:113">
<rect width="20" height="20" fill="white"/>
</clipPath>
</defs>
</svg>
