<svg width="20" height="20" viewBox="0 0 20 20" fill="none" xmlns="http://www.w3.org/2000/svg">
<path d="M15 2.5C15.4274 2.5 15.7796 2.8217 15.8278 3.23615L15.8334 3.33333V16.6667C15.8334 17.1269 15.4603 17.5 15 17.5C14.5727 17.5 14.2204 17.1783 14.1723 16.7639L14.1667 16.6667V12.5H13.3334C12.906 12.5 12.5538 12.1783 12.5056 11.7639L12.5 11.6667V6.66667C12.5 4.82572 13.75 2.5 15 2.5ZM10 2.5C10.4274 2.5 10.7796 2.8217 10.8278 3.23615L10.8334 3.33333V7.5C10.8334 9.05297 9.77137 10.3579 8.334 10.7282L8.33337 16.6667C8.33337 17.1269 7.96027 17.5 7.50004 17.5C7.07267 17.5 6.72045 17.1783 6.67231 16.7639L6.6667 16.6667L6.66691 10.7284C5.28236 10.3721 4.24591 9.14867 4.17104 7.67153L4.1667 7.5V3.33333C4.1667 2.8731 4.5398 2.5 5.00004 2.5C5.4274 2.5 5.77963 2.8217 5.82776 3.23615L5.83337 3.33333V7.5C5.83337 8.11688 6.16851 8.65548 6.66664 8.94366L6.6667 3.33333C6.6667 2.8731 7.0398 2.5 7.50004 2.5C7.9274 2.5 8.27963 2.8217 8.32776 3.23615L8.33337 3.33333L8.33427 8.94318C8.79366 8.67705 9.11424 8.19787 9.16084 7.64081L9.1667 7.5V3.33333C9.1667 2.8731 9.5398 2.5 10 2.5Z" fill="white"/>
</svg>
