<svg width="20" height="20" viewBox="0 0 20 20" fill="none" xmlns="http://www.w3.org/2000/svg">
<g clip-path="url(#clip0_212:125)">
<path d="M19.6107 5.3033L10.3149 0.655418C10.1167 0.556226 9.8833 0.556226 9.68505 0.655418L0.389293 5.3033C0.150707 5.42262 0 5.66639 0 5.9332V18.7149C0 19.1038 0.315286 19.4191 0.704242 19.4191H3.02822C3.4171 19.4191 3.73246 19.1038 3.73246 18.7149V7.79939H16.2677V18.7149C16.2677 19.1038 16.583 19.4191 16.9719 19.4191H19.2959C19.6848 19.4191 20.0001 19.1038 20.0001 18.7149V5.9332C20 5.66639 19.8493 5.42262 19.6107 5.3033ZM18.5916 18.0106H17.6761V7.09515C17.6761 6.70626 17.3608 6.39091 16.9719 6.39091H3.02815C2.63926 6.39091 2.32391 6.70619 2.32391 7.09515V18.0106H1.40842V6.36841L10 2.07266L18.5916 6.36841V18.0106Z" fill="white"/>
<path d="M14.6478 8.92606H9.99995C9.7277 8.92606 9.50702 9.14673 9.50702 9.41898V13.5739H5.35208C5.07982 13.5739 4.85915 13.7946 4.85915 14.0669V18.7147C4.85915 18.987 5.07982 19.2077 5.35208 19.2077H14.6478C14.9201 19.2077 15.1408 18.987 15.1408 18.7147V9.41905C15.1408 9.14673 14.9201 8.92606 14.6478 8.92606ZM10.4929 15.2571L11.6267 16.3909L10.4929 17.5247V15.2571ZM9.50702 17.5246L8.37322 16.3908L9.50702 15.257V17.5246ZM11.1901 14.5599H13.4577L12.3239 15.6937L11.1901 14.5599ZM11.1901 13.5739L12.3239 12.4401L13.4577 13.5739H11.1901ZM14.1549 12.8768L13.0212 11.743L14.1549 10.6092V12.8768ZM12.3239 11.0458L11.1901 9.91198H13.4577L12.3239 11.0458ZM11.6267 11.743L10.4929 12.8768V10.6092L11.6267 11.743ZM7.67598 15.6937L6.54218 14.5599H8.80972L7.67598 15.6937ZM6.97881 16.3908L5.84501 17.5246V15.2571L6.97881 16.3908ZM7.67598 17.0881L8.80979 18.2219H6.54224L7.67598 17.0881ZM12.3239 17.0881L13.4577 18.2219H11.1901L12.3239 17.0881ZM13.0211 16.3908L14.1549 15.257V17.5246L13.0211 16.3908Z" fill="white"/>
</g>
<defs>
<clipPath id="clip0_212:125">
<rect width="20" height="20" fill="white"/>
</clipPath>
</defs>
</svg>
