<svg width="676" height="718" viewBox="0 0 676 718" fill="none" xmlns="http://www.w3.org/2000/svg">
<path d="M10.5329 708.256C16.5044 699.944 21.3901 690.722 21.3901 687.763C21.3901 684.803 24.1753 677.869 27.5793 672.353C30.9833 666.838 36.7423 639.966 40.377 612.639C61.2618 455.618 68.118 421.676 92.2629 355.779C107.588 313.954 129.799 267.53 135.034 267.291C135.034 267.291 142.132 259.976 145.975 251.422C165.85 207.172 241.209 133.873 297.046 104.479C362.072 70.2481 438.486 79.3726 467.854 124.875C473.383 133.441 481.205 140.45 485.237 140.45C489.269 140.45 504.823 152.608 519.802 167.467C534.781 182.327 548.337 194.527 549.925 194.58C551.514 194.632 555.393 197.217 558.547 200.323C567.562 209.205 600.887 225.354 617.265 228.779C639.642 233.458 647.172 239.047 653.804 255.897C666.875 289.109 660.366 292.591 607.439 280.697C572.223 272.783 522.885 270.776 517.005 277.019C515.756 278.345 530.042 284.82 548.751 291.409C632.16 320.781 642.665 342.455 569.229 333.657C552.342 331.634 521.287 329.108 500.218 328.045C479.15 326.982 449.319 323.731 433.927 320.821C410.612 316.413 401.381 316.716 378.596 322.637C363.556 326.546 343.588 331.099 334.224 332.755C247.522 348.09 196.365 513.865 219.61 704.164C221.404 718.857 220.545 723.369 215.952 723.369C211.384 723.369 209.292 712.839 207.201 679.311C196.478 507.392 227.393 382.271 291.89 336.556C296.697 333.149 317.765 326.517 338.708 321.819C439.433 299.223 466.848 274.76 471.457 203.368C479.088 85.1691 371.445 53.8776 259.74 141.822C246.865 151.959 235.692 161.897 234.912 163.907C234.132 165.918 231.673 167.562 229.448 167.562C227.223 167.562 220.201 173.34 213.842 180.402C185.848 211.491 167.214 234.207 157.652 248.9C151.991 257.598 146.058 265.732 144.468 266.975C115.596 289.531 62.9159 474.466 51.2036 594.383C44.1991 666.098 25.0588 723.369 8.09568 723.369C0.19233 723.369 0.34188 722.441 10.5329 708.256ZM585.035 314.062C545.134 294.788 464.939 272.191 460.316 278.918C454.665 287.142 429.968 303.131 422.714 303.262C394.648 303.768 438.251 312.958 488.189 317.061C520.555 319.72 558.529 323.344 572.575 325.114C606.734 329.417 610.292 326.262 585.035 314.062V314.062ZM651.315 273.529C651.315 263.119 636.562 244.097 626.764 241.874C588.293 233.145 526.209 196.398 512.556 174.276C506.77 164.901 481.158 145.583 481.034 150.501C479.21 222.79 477.56 252.645 475.054 258.668C472.217 265.487 477.921 266.168 537.149 266.079C573.02 266.025 608.114 268.064 615.137 270.608C629.128 275.678 651.315 277.469 651.315 273.529ZM356.335 200.166C339.99 180.992 354.973 156.143 374.24 170.471C381.221 175.662 383.313 181.147 382.346 191.72C380.78 208.854 367.434 213.188 356.335 200.166Z" fill="black"/>
</svg>
