<svg width="30" height="30" viewBox="0 0 30 30" fill="none" xmlns="http://www.w3.org/2000/svg">
<rect x="0.5" y="0.5" width="29" height="29" rx="14.5" fill="white"/>
<path d="M22.7979 8L20.6046 10.1857C22.0746 11.6451 22.8889 13.5862 22.8889 15.6515C22.8889 19.9086 19.4013 23.3693 15.1111 23.3693V21.8257L12 24.9129L15.1111 28V26.4564C21.1148 26.4564 26 21.6089 26 15.6515C26 12.7604 24.8637 10.0437 22.7979 8Z" fill="#030104"/>
<path d="M18 6.08713L14.8889 3V4.54357C8.88522 4.54357 4 9.39114 4 15.3485C4 18.2396 5.13633 20.9563 7.20211 23L9.39544 20.8143C7.92544 19.3549 7.11111 17.4138 7.11111 15.3485C7.11111 11.0914 10.5987 7.6307 14.8889 7.6307V9.17427L18 6.08713Z" fill="#030104"/>
<rect x="0.5" y="0.5" width="29" height="29" rx="14.5" stroke="black"/>
</svg>
